<?xml version="1.0" encoding="utf-8"?>
<!-- Generator: Adobe Illustrator 25.0.1, SVG Export Plug-In . SVG Version: 6.00 Build 0)  -->
<svg version="1.1" id="图层_1" xmlns="http://www.w3.org/2000/svg" xmlns:xlink="http://www.w3.org/1999/xlink" x="0px" y="0px"
	 viewBox="0 0 200 155.5" style="enable-background:new 0 0 200 155.5;" xml:space="preserve">
<path fill="#fff" d="M100,155.4c-26.9,0-53.7-0.3-80.6,0.1C6.5,155.7-0.1,146.9,0,136.2C0.3,97.2,0.1,58.1,0.1,19C0.1,6.5,6.7,0,19.2,0H181
	c12.3,0,18.9,6.6,19,18.9v117.9c0,12.1-6.6,18.6-18.8,18.6L100,155.4z M12.4,21.3l-1,0.5v2.9c0,37.4,0,74.8,0,112.2
	c0,5.7,1.8,7.6,7.5,7.6c54.1,0,108.1,0,162.1,0c5.8,0,7.6-1.8,7.6-7.5c0-37.1,0-74.1,0-111.2c0-0.9-0.1-1.8-0.2-2.8l-0.7-0.4
	c-0.8,1-1.6,2.1-2.5,3.1c-23.6,23.7-47.2,47.3-70.8,71c-9,9-18.4,9-27.5-0.1c-24-24-48-48.1-71.9-72.1C14,23.5,13.3,22.3,12.4,21.3z
	 M183.5,12.4l-0.6-0.8H18.4l-0.5,0.8c1,0.7,2,1.4,2.9,2.2C45.4,39.2,70,63.9,94.7,88.5c4.9,4.9,7.1,4.9,12,0
	c24.7-24.7,49.4-49.4,74.2-74.2C181.7,13.6,182.5,13,183.5,12.4z"/>
</svg>
