<?xml version="1.0" encoding="utf-8"?>
<!-- Generator: Adobe Illustrator 25.0.1, SVG Export Plug-In . SVG Version: 6.00 Build 0)  -->
<svg version="1.1" id="图层_1" xmlns="http://www.w3.org/2000/svg" xmlns:xlink="http://www.w3.org/1999/xlink" x="0px" y="0px"
	 viewBox="0 0 199.9 200.2" style="enable-background:new 0 0 199.9 200.2;" xml:space="preserve">
<path fill="rgba(100,108,220)" d="M189.5,151.8l-21.4,5.8c-5.8,1.6-11.7,3-17.5,4.8c-1.5,0.5-2.8,1.5-3.7,2.9c-6.1,10.3-12,20.7-18,31.1
	c-0.7,1.2-1.3,2.3-2.1,3.8c-1-0.5-1.9-0.9-2.8-1.4c-10.5-6.1-21.1-12.1-31.6-18.3c-1.8-1.2-4.1-1.4-6.1-0.8
	c-11.8,3.3-23.7,6.4-35.5,9.6c-0.8,0.2-1.6,0.4-2.7,0.6c-2.1-7.9-4.2-15.7-6.3-23.5c-1.4-5.1-2.6-10.3-4.2-15.4
	c-0.5-1.5-1.5-2.8-2.8-3.7c-10.6-6.3-21.4-12.5-32.1-18.7C1.8,128,1,127.4,0,126.8c6.4-11.1,12.7-22.1,19.2-33
	c1.6-2.5,2-5.6,1.1-8.4C17,73.9,14.1,62.3,11,50.8c-0.2-0.7-0.3-1.4-0.4-2.4L33.8,42c5.1-1.4,10.3-2.6,15.4-4.2
	c1.5-0.5,2.8-1.5,3.7-2.8c6.3-10.6,12.5-21.4,18.7-32.1C72.1,2,72.7,1.1,73.3,0c11.2,6.5,22.3,12.8,33.3,19.3c2.3,1.5,5.2,1.9,7.8,1
	c11.6-3.3,23.2-6.3,34.9-9.4c0.7-0.2,1.4-0.3,2.4-0.4l5.7,21.3c1.6,5.8,3,11.7,4.8,17.5c0.5,1.5,1.5,2.8,2.8,3.7
	c10.6,6.3,21.4,12.5,32.1,18.8c0.9,0.5,1.8,1.1,2.8,1.7c-6.5,11.3-12.8,22.3-19.3,33.3c-1.5,2.3-1.9,5.2-1,7.9
	c3.3,11.6,6.2,23.3,9.4,34.9C189.3,150.1,189.3,150.8,189.5,151.8z"/>
</svg>
