<?xml version="1.0" encoding="UTF-8"?>
<svg data-bbox="0 0 766.935 381.09" viewBox="0 0 766.94 381.09" xmlns="http://www.w3.org/2000/svg" data-type="shape">
    <g>
        <path fill="#fff"  d="M0 195.49c2 .16 3.94.46 5.92.46h92.86c14.16 0 20.09 5.9 20.09 19.91v99.73c0 12.57-6.38 18.94-19.07 19-14.32.05-28.63 0-42.94 0h-5.8V381H0Zm51.05 116.1c3.39 0 6.22.21 9-.05 5-.47 7.89-3.53 7.91-8.57q.12-38.15 0-76.29c0-4.35-2.3-7.46-6.56-8.19-3.31-.57-6.8-.12-10.35-.12Z"/>
        <path fill="#fff"  d="M459.4 380.85h-50.92V228.9c0-6.9-2.91-10.57-8.37-10.69a8.12 8.12 0 0 0-8.68 7.74c-.15 1.65-.08 3.32-.08 5v149.84H340.6V229c0-7-2.83-10.58-8.3-10.77a8.14 8.14 0 0 0-8.78 7.64c-.16 1.65-.09 3.33-.09 5v149.89h-50.98V215.71c0-13.68 6-19.67 19.83-19.67h147.29c13.72 0 19.82 6.11 19.82 19.73v159.57Z"/>
        <path  fill="#fff" d="M413.51.32c2.35 2.75 4.11 4.68 5.72 6.72 1.79 2.26 3.37 2.71 5.69.43 7.87-7.78 8.09-7.8 13.2 2.2 1.6 3.12 3.57 4 6.89 4.4 14.94 1.69 28.54 7.46 41.64 14.5 24.64 13.25 46.28 30.61 67 49.18 16.3 14.61 33.35 28.18 53.9 36.3a129.5 129.5 0 0 0 25.89 6.72c12.57 2.13 23.56-2.3 33.29-10.2 10.57-8.58 18-19.41 23.37-31.83 4.64-10.83 9-21.79 14.11-32.4 8.48-17.63 20.7-32.07 38.06-41.67A43.4 43.4 0 0 1 752.33.45c8.13-2.08 14.81 3.26 14.6 11.64-.19 7.57-3.37 14-9.6 18.29a104.4 104.4 0 0 1-15.61 8.77c-16.19 7.46-28.46 18.84-36.15 35-4.43 9.28-9.26 18.44-12.87 28-5 13.37-13.94 23.3-25.46 31.09-3.95 2.66-4.75 4.49-1.37 8.36 7.86 9 10.43 20.43 12 31.72 1.86 13.27 2.55 26.75 3.13 40.16.45 10.47 4.67 18.73 13.2 24.31 6 4 8.56 8.66 9.1 15.89.4 5.49 3.18 11 5.73 16.09 2.11 4.21 3.19 7.6 1.51 12.56s-1.12 10.78-1.27 16.22c-.14 4.78-1.23 5.93-5.94 5.29-8.61-1.17-14.14-6.18-17.23-14.06-3.65-9.33-4.08-19.13-3.46-29 .24-3.9-.87-6.48-4.07-8.84-25-18.41-43.36-41.86-54.36-71-4-10.52-9.27-20.25-18.92-26.88a49.54 49.54 0 0 0-26-8.76 264 264 0 0 1-36.57-4.3c-18.43-3.67-33.87-13.33-47.07-26.62-4.45-4.48-8.94-9-13.79-13-1.27-1-4.92-1.31-5.84-.36-11.11 11.52-24.46 11.7-38.4 7.61-7.3-2.14-14.24-5.48-21.31-8.36-3.07-1.26-6-2.86-9.09-4.08-6.49-2.58-7.49-2-9.06 4.93-1.3 5.69-4.11 7.47-9.75 6-5.91-1.56-10.33-5.16-11.59-11.17-1.33-6.31 1.58-11.54 6.8-15 9.81-6.47 20.85-7.16 32.17-5.82a22.5 22.5 0 0 1 3.91.77c3.52 1.07 6.6 1.27 8.14-3s.32-9-3.28-11c-4.51-2.5-9.38-3.61-14.39-1.71-5.84 2.22-10.1.48-14.11-4.08-2.58-2.94-6.1-5.06-9.24-7.51-5.51-4.3-5.67-8.79-.11-13a14.5 14.5 0 0 0 6-9.83c.36-2.13 2.14-4.92 4-5.76 6.59-2.94 10.27-8.16 13.2-14.3a55 55 0 0 1 3.6-5.39"/>
        <path fill="#fff"  d="M595.49 380.81h-50.7v-45.69h-17.14v45.56H476.6V215.8c0-13.56 6.23-19.81 19.8-19.82h79.36c13.77 0 19.75 6 19.75 19.71v159.5Zm-50.81-69.28v-81.14a36 36 0 0 0-.17-5 7.72 7.72 0 0 0-7.16-7.1c-4.06-.56-7.25 1-8.94 4.78a13.5 13.5 0 0 0-1 5.3q-.09 39.8 0 79.61c0 1.09.2 2.18.33 3.47Z"/>
        <path  fill="#fff" d="M255.03 196.24v166.45c0 13.19-5.23 18.4-18.41 18.4h-83.87c-10.41 0-16.64-6-16.66-16.27q-.09-82.76 0-165.53c0-.82.13-1.64.24-2.88h50.61v152.6c.2 5.74 3.65 9.74 8.49 9.88 5 .14 8.76-3.92 8.79-10 .09-23.77.07-47.53.09-71.3v-81.37Z"/>
    </g>
</svg>
