<?xml version="1.0" encoding="utf-8"?>
<!-- Generator: Adobe Illustrator 25.0.1, SVG Export Plug-In . SVG Version: 6.00 Build 0)  -->
<svg version="1.1" id="图层_1" xmlns="http://www.w3.org/2000/svg" xmlns:xlink="http://www.w3.org/1999/xlink" x="0px" y="0px"
	 viewBox="0 0 200 200" style="enable-background:new 0 0 200 200;" xml:space="preserve">
<path fill="#fff" d="M100,200c-54.7,0.1-99.9-44.4-100-99.9C-0.1,45.3,44.4,0.1,100,0c55-0.1,100.1,45,100,100C200,155.2,155.2,200,100,200z
	 M188.6,100c-0.1-48.9-39.9-88.6-88.7-88.6c-48.8,0-88.6,39.8-88.6,88.6c0,48.9,40,88.8,88.7,88.7C149,188.5,188.7,148.7,188.6,100z
	"/>
<path fill="#fff" d="M94.3,105.7h-1.8c-10,0-19.9,0-29.9,0c-3.4,0-5.9-2.3-6-5.5c-0.2-3.1,2.2-5.8,5.3-5.9c0.1,0,0.2,0,0.3,0
	c2.8-0.1,5.5,0,8.3,0h23.8v-1.7c0-10,0-20,0-30c0-3.4,2.3-5.9,5.5-6c3.1-0.2,5.8,2.2,5.9,5.3c0,0.1,0,0.2,0,0.3c0.1,3.1,0,6.3,0,9.4
	v22.7h1.7c10,0,20,0,30,0c3.4,0,5.9,2.3,6,5.5c0.2,3.1-2.2,5.8-5.3,5.9c-0.1,0-0.2,0-0.3,0c-3,0.1-6,0-9,0h-23.1v1.7c0,10,0,20,0,30
	c0,3.4-2.3,5.9-5.5,6c-3.1,0.2-5.8-2.2-5.9-5.3c0-0.1,0-0.2,0-0.3c-0.1-2.8,0-5.5,0-8.3L94.3,105.7L94.3,105.7z"/>
</svg>
