<svg id="图层_1" data-name="图层 1" xmlns="http://www.w3.org/2000/svg" viewBox="0 0 200 198.43"><path d="M471.43,326.09h-5.62c-6.31,0-12.62-.07-18.93,0-2.16,0-2.93-.72-2.9-2.88.11-5.76,0-11.52.06-17.28.12-7.91,5.36-13.66,13.26-14.32,4.18-.36,8.41-.28,12.62-.22,2.24,0,3.18-.72,3.13-3.07-.11-6,.05-12-.12-17.93,0-1-1-2.78-1.77-2.9-12.05-2-24.23-3.64-36.05.75-13.92,5.17-20.26,16.24-21.42,30.41a214.42,214.42,0,0,0-.2,23.24c.09,3.49-1.14,4.35-4.39,4.23-6-.22-12,0-17.93-.1-2.35-.05-3.08.82-3.05,3.09.1,7.31.12,14.62,0,21.93-.05,2.66,1,3.47,3.53,3.42,6-.11,12,.05,17.94-.07,2.83-.05,3.89,1,3.87,3.88-.09,20.81,0,41.63-.05,62.45,0,3.73-.55,4.23-4.35,3.42a100.11,100.11,0,0,1-43.61-20.65c-17.19-14.18-29-32-33.92-53.72-7.92-35.3.3-66.63,25.23-93.17a93,93,0,0,1,51.72-28.53c33.78-6.24,63.84,1.92,89.17,25.64a96.17,96.17,0,0,1,27.06,44.52,98.28,98.28,0,0,1,2.15,46c-5.25,27.75-19.83,49.31-43,65.17a98.1,98.1,0,0,1-35.6,14.76c-3.87.82-4.23.49-4.23-3.42,0-20.7.05-41.41-.06-62.12,0-3.12.83-4.35,4.1-4.22,5.3.23,10.63.19,15.94,0,1.22-.06,3.27-1.21,3.43-2.13C468.92,343.76,470.08,335.24,471.43,326.09Z" transform="translate(-328.61 -226.09)"/></svg>