<svg id="图层_1" data-name="图层 1" xmlns="http://www.w3.org/2000/svg" viewBox="0 0 174.63 200"><path d="M452.32,279.11v67.53c0,27.31-15.37,50.75-40.88,60.31-21.9,8.21-42.91,5.25-61.5-9.24-17.89-13.95-26-32.84-24.22-55.39a62.72,62.72,0,0,1,44.93-55.14,60,60,0,0,1,24.12-2.32c2,.24,2.87.89,2.85,3-.09,9.8-.11,19.61,0,29.41,0,2.72-1.08,3-3.37,2.62-12.64-2.27-22.54,2.29-29.5,12.79-10.14,15.29-2.22,36.6,15.19,42.2,19.3,6.2,37.54-8.68,37.5-27.6q-.12-65.81,0-131.61c0-4.2,0-4.2,4.06-4.21,9,0,18.06.07,27.08,0,2.59,0,3.72.5,3.89,3.48,1.13,20,15.83,37.54,35.35,42.38a68,68,0,0,0,9.45,1.46c1.85.19,2.85.71,2.84,2.77,0,9.81-.08,19.61,0,29.41,0,2.7-1.61,2.65-3.45,2.62a77.48,77.48,0,0,1-35.08-9.21C458.68,282.86,455.88,281.15,452.32,279.11Z" transform="translate(-325.47 -211.46)"/></svg>