<?xml version="1.0" encoding="UTF-8"?>
<svg data-bbox="0 -0.03 567.17 99.2" viewBox="0 0 567.21 99.18" xmlns="http://www.w3.org/2000/svg" data-type="shape">
    <g>
        <path fill="#fff"  d="M73.24 16.4S62.18 7.24 48.06 7.24c0 0-16.78 0-28.61 12.21 0 0-11.82 12.21-11.82 29 0 0 0 16.78 11.82 29 0 0 11.83 11.82 28.61 11.82 0 0 14.12 0 25.18-8.77l5.34 5.34S65.23 96.9 48.06 96.9c0 0-19.83 0-33.95-14.49 0 0-14.11-14.12-14.11-33.95 0 0 0-19.84 14.11-34 0 0 14.12-14.49 33.95-14.49 0 0 17.17 0 30.52 10.68l-5.34 5.72"/>
        <path fill="#fff"  d="M111.74 34.33c-13 0-22.12 9.15-22.12 9.15-9.14 9.12-9.14 22.12-9.14 22.12 0 13 9.16 22.13 9.16 22.13 9.15 9.15 22.12 9.15 22.12 9.15 14.88 0 24.8-12.58 24.8-12.58v11.06h6.86V36.23h-6.86v10.3c-9.54-12.2-24.82-12.2-24.82-12.2m0 6.86c9.92 0 17.17 6.87 17.17 6.87 7.25 7.25 7.25 17.54 7.25 17.54 0 9.92-7.25 17.17-7.25 17.17-7.25 7.25-17.17 7.25-17.17 7.25-10.3 0-17.16-7.25-17.16-7.25-7.25-7.25-7.25-17.17-7.25-17.17 0-10.29 7.25-17.54 7.25-17.54 6.88-6.87 17.16-6.87 17.16-6.87"/>
        <path fill="#fff"  d="M241.84 9.15s-4.2 0-4.2-4.2c0 0 0-4.57 4.2-4.57 0 0 4.57 0 4.57 4.57a4.24 4.24 0 0 1-4.57 4.2"/>
        <path fill="#fff"  d="M164.02.38v95h-7.28v-95h7.25"/>
        <path fill="#fff"  d="m200.26 82.39 21-46.16h7.63l-28.61 62.94-29.37-62.94h8l21.36 46.16"/>
        <path fill="#fff"  d="M265.11 41.95a21.79 21.79 0 0 1 16.78-7.62s9.92 0 16.78 6.86c0 0 6.87 6.87 6.87 16.79v37.38h-6.87V57.98s0-7.25-5-12.21a17.25 17.25 0 0 0-11.82-5s-6.87 0-11.83 4.58a19.17 19.17 0 0 0-4.95 12.59v37.38h-6.83V36.23h6.87z"/>
        <path fill="#fff"  d="M245.27 36.23v59.13h-6.87V36.23z"/>
        <path fill="#fff"  d="m396.74.76-37.8 40.84 37.38 53.79h-8.77l-33.57-48.45-6.86 7.25v41.2h-6.87v-95h6.87v43.1L386.79.77h9.95"/>
        <path fill="#fff"  d="M414.25.38v95H407v-95z"/>
        <path  fill="#fff" d="M456.59 34.33c-13 0-22.12 9.15-22.12 9.15-8.73 8.77-8.73 22.12-8.73 22.12 0 13 8.77 21.75 8.77 21.75 9.15 9.15 22.12 9.15 22.12 9.15 19.84 0 28.23-17.55 28.23-17.55l-6.1-2.67c-6.91 13.32-22.17 13.32-22.17 13.32-9.91 0-16.78-6.87-16.78-6.87-7.25-6.87-7.25-16.78-7.25-16.78h55.31v-.35c0-13.35-9.15-22.12-9.15-22.12-9.16-9.15-22.13-9.15-22.13-9.15m0 6.48c8.39 0 14.88 5.34 14.88 5.34a27.67 27.67 0 0 1 8.77 12.59h-46.92a28.7 28.7 0 0 1 8.4-12.59 26.7 26.7 0 0 1 14.87-5.34"/>
        <path fill="#fff"  d="M498.55 4.95s0-4.57 4.2-4.57a4.23 4.23 0 0 1 4.19 4.57s0 4.2-4.19 4.2c0 0-4.2 0-4.2-4.2"/>
        <path  fill="#fff" d="M526.74 36.23v5.72s5.34-7.62 16.78-7.62c0 0 9.92 0 16.79 6.86 0 0 6.86 6.87 6.86 16.79v37.38h-7.24V57.98s0-7.25-4.58-12.21c0 0-5-5-11.83-5 0 0-7.24 0-11.82 4.58a19.16 19.16 0 0 0-5 12.59v37.38h-7.25V36.23z"/>
        <path fill="#fff"  d="M506.18 36.23v59.13h-6.87V36.23z"/>
    </g>
</svg>
