<?xml version="1.0" encoding="UTF-8"?>
<svg data-bbox="-0.03 0.016 492.53 102.754" viewBox="0 0 492.5 102.77" xmlns="http://www.w3.org/2000/svg" data-type="shape">
    <g>
        <path fill="#fff" d="M191.28 43.06h-14.11c2.68-2.89 2.83-6.28 2.86-9.66.05-6.75 0-13.49 0-20.24 0-.7-.06-1.39-.13-2.77-3.13 6-6 11.44-8.74 16.85q-3.58 7-7.12 14a3 3 0 0 1-2.95 2c-1.7 0-2-1-2.59-2.09q-7.08-14.28-14.22-28.51c-.35-.71-.83-1.34-1.65-2.64v24.14c0 3.18.11 6.31 2.79 8.88h-10.37c2.82-3 3.16-6.36 3.14-9.9 0-8.16-.1-16.33 0-24.5a10.15 10.15 0 0 0-3.53-8.46h11.33a1.32 1.32 0 0 1 1 .65c2.75 5.46 5.42 11 8.19 16.41 2.61 5.14 5.31 10.23 8.19 15.77 3.13-6.26 6-12.1 9-17.93 2.29-4.58 4.56-9.18 6.92-13.73a2.31 2.31 0 0 1 1.59-1.16c3.47-.11 6.95 0 11 0-3.27 2.84-3.72 6.15-3.66 9.74.12 8 .06 16 .06 24-.05 3.16.17 6.29 3 9.15"/>
        <path fill="#fff" d="M74.59 43.4c-7.91.08-15.36-2.58-19.89-10.43-2.9-5-3.28-10.65-2.16-16.38C54.54 6.27 65.71.23 73.7.1a31.5 31.5 0 0 1 12.9 2.06c12.83 5.26 16.68 22.87 7.56 33.44-5.08 5.89-11.45 7.81-19.57 7.8M61.17 21.03c0 6.18 1.05 11.4 5.91 15.31 5 4 13.62 3.72 17.77-.74 5.64-6.07 6.18-13.2 4.23-20.69-1.55-6-5.45-9.65-11.77-10.59-4.78-.7-10.59 2.05-13.39 6-2.47 3.47-2.52 7.3-2.75 10.71"/>
        <path fill="#fff"  d="M349.09 43.5c-5.74 0-11.09-1.17-15.63-4.84-6.37-5.15-8.53-12-7.57-19.94C327.23 7.63 337.47.55 347.58.08c6.25-.29 12 .84 17.16 4.62a19.1 19.1 0 0 1 7.8 13.78c1.42 11.86-4.6 21.65-16.76 24.37a51 51 0 0 1-6.69.65m14.76-23.6a79 79 0 0 0-2.25-8c-1.86-5-6.13-7.17-11.07-7.56-4.61-.37-9 .83-11.88 4.89-5 7.09-5.23 14.58-1.6 22.38 3.78 8.11 15.24 10.3 21.62 4 3.96-3.82 4.87-8.82 5.18-15.71"/>
        <path fill="#fff" d="M428.25 31.3c0-8.91.15-17.13-.12-25.33-.06-1.93-1.51-3.81-2.32-5.72h10.59c-4.69 4.12-3.21 9.41-3.28 14.32-.13 9.4 0 18.79 0 28.18-3.23 1.16-5.43 0-7.42-2.38q-9.63-11.49-19.42-22.85c-2.29-2.66-4.71-5.21-7.44-8.2v19.82a37 37 0 0 0 .26 6.22c.46 2.55 1.36 5 2.09 7.6h-10.16c3.65-4 3.45-8.95 3.4-13.84-.07-5.75-.11-11.49 0-17.24.1-4.25-.38-8.24-4-11.76h9.66a2.23 2.23 0 0 1 1.37.79q11.94 13.49 23.82 27Z"/>
        <path fill="#fff" d="M454.53 43.14c3-2.9 2.85-6.1 2.84-9.25 0-9.08 0-18.15-.21-27.22-.06-2.1-1.14-4.17-1.77-6.32h33.16c.57 3.26 1.15 6.58 1.74 9.91-7-6.94-15.73-5.8-24.41-5.68v13.77h16.29c-.77 4.1-.77 4.1-4.55 4.1h-11.71v16.34c9.19.33 18.4.83 25.9-6.42l.69.48c-.67 3.25-1.3 6.51-2.05 9.74-.07.3-.95.57-1.45.57-11.25-.02-22.49-.02-34.47-.02"/>
        <path fill="#fff"  d="M256.27 43.02h-15c2.61-3.89 1.59-7.45-.49-10.87a2.63 2.63 0 0 0-1.75-1.24q-8.49-.15-17 0a2.45 2.45 0 0 0-1.78 1.32c-1.32 3.43-3.49 6.86-.32 10.76h-12.47a30.4 30.4 0 0 0 3.6-4.43q4.46-8.3 8.54-16.76 4.47-9.3 8.59-18.76c1-2.3 2.38-3.38 4.9-2.92a11.3 11.3 0 0 0 2.09 0c7.47 14.14 11.91 29.59 21.09 42.9M223 25.52h15.17c-2.57-5.63-5-11.07-7.64-16.78Z"/>
        <path fill="#fff" d="M287.17.33c-2.29 2.77-2.56 5.89-2.52 9.18.1 8.9 0 17.81 0 26.72v2.56c9.62.57 18.68-.06 26.13-7.3-.74 3.45-1.42 6.9-2.28 10.32a2.25 2.25 0 0 1-1.65 1.31c-11 .07-21.92.05-33.24.05 2.8-3.56 3-7.49 3-11.48 0-8 .14-16-.08-24-.07-2.45-1.11-4.87-1.72-7.35Z"/>
        <path fill="#fff" d="M18.54.24h14.17c-3 2.82-3.13 6.14-3.08 9.61.1 6.74 0 13.48 0 20.23 0 7.7-4.65 12.87-12.33 13a111 111 0 0 1-14.09-1.06 3 3 0 0 1-2.18-1.83C.49 37.64.34 35-.03 31.74c2.2 1.83 3.83 3.29 5.57 4.62 3.51 2.67 7.28 3.92 11.6 1.91a6.06 6.06 0 0 0 3.87-5.38c.18-9.23.2-18.46 0-27.68-.05-1.64-1.59-3.26-2.47-4.97"/>
        <path fill="#fff" d="M240.41 94.84c-.28-4.38-.55-8.76-.83-13.2h3.76c-.1 6.12-.17 12.19-.32 18.27a10.4 10.4 0 0 1-.66 2.42c-.93-.4-2.13-.54-2.73-1.22-3.28-3.73-6.43-7.58-9.59-11.4a4.4 4.4 0 0 0-2-1.75v14.28h-4c.65-6.91 1.67-13.67-.64-20.42 3.41-.95 4.76-.25 7.19 2.82 2.84 3.61 6.05 6.93 9.11 10.38Z"/>
        <path fill="#fff" d="M209.17 91.99c0 6.57-4.39 10.71-11.36 10.7-6.36 0-11.24-4.39-11.24-10.59 0-6.72 5.69-11.05 11.75-10.79 6.63.29 10.85 3.76 10.85 10.68m-18.18.15c0 4.51 2.86 7.71 6.93 7.79s7.15-3.5 7.17-8-3.06-7.92-7.2-7.87-6.9 3.17-6.89 8.08Z"/>
        <path fill="#fff" d="M291.62 91.95c-.37-6.88 5.35-10.57 11.47-10.67a10.65 10.65 0 0 1 11.15 10.8c0 5.61-4.66 10.64-11.65 10.62-6.74-.02-11.02-4.19-10.97-10.75m18.15-.11c0-4.81-2.59-7.74-6.86-7.75s-7.26 3.52-7.17 8.15c.08 4.44 3.17 7.77 7.18 7.68 4.32-.13 6.9-3.43 6.85-8.08"/>
        <path fill="#fff" d="M259.58 81.05c4.11.56 8.71.51 12.82 1.91 6.72 2.28 8 12.1 2.45 16.53a13.65 13.65 0 0 1-6.23 2.62 56 56 0 0 1-8.55.11c0-3.41.06-6.84 0-10.27s-.3-6.72-.49-10.9m4.75 18.82c3.39.19 6.38-.1 8.32-3.05a8.25 8.25 0 0 0 0-9.8c-1.93-2.77-4.9-3.39-8.28-2.71Z"/>
        <path fill="#fff" d="M327.66 81.85c5.23-1.89 7 2.44 9.53 5.09s5 5.69 7.73 8.42c-.2-4.59 1.42-9.25-1.31-13.68h5.06c-1.87 4.62-.68 9.42-1 14.14-.12 2.06 0 4.15 0 6.95-1.26-.64-2.38-.88-3-1.57-3.62-4-7.11-8.06-10.67-12.09a15 15 0 0 0-1.64-1.44v14.56h-3.46c.11-3.44.42-6.92.28-10.39s1.22-6.99-1.52-9.99"/>
        <path fill="#fff" d="M156.1 102.39c.77-7 1.05-13.84-.17-20.73h5v17.89c4 .26 8.17.56 11.78-2.94-.24 1.59-.39 3.2-.78 4.75a1.82 1.82 0 0 1-1.41 1c-4.86.06-9.75.03-14.42.03"/>
    </g>
</svg>
