<?xml version="1.0" encoding="UTF-8"?>
<svg data-bbox="0 -0.03 695.99 217.311" viewBox="0 0 695.99 217.29" xmlns="http://www.w3.org/2000/svg" data-type="color">
    <g>
        <path d="M0 67.95h78.93v141.38h70.58V67.95h78.84V10.88H0Z" fill="#ffffff" data-color="1"/>
        <path d="M366.7 168.46c-16.4 0-28.71-4.74-39.17-14.47-10.22-9.53-17.56-24.07-17.56-43.88v-3c0-19.71 7.34-34.48 17.56-43.94 10.46-9.8 22.86-14.32 39.17-14.32 38.54 0 46.76 22.93 49.23 37.88h62.64c-1.54-30.18-15.92-51.4-36.25-65.52S398.58-.03 367.38-.03c-38.35 0-65.6 8.54-88 27.52-22.56 19.4-34.56 49.89-34.56 80.37v1.55c0 33.32 10.46 58.31 33.58 79.33 21.64 19.67 53.19 28.66 88.25 28.54 31.07 0 57.75-7.29 76.21-21.17 20.36-15.38 34.27-37 35.93-65.45h-62.5c-1.73 12-9.27 37.8-49.59 37.8" fill="#ffffff" data-color="1"/>
        <path d="M584.51 154.91v-144h-68v198.34h179.48v-54.34Z" fill="#ffffff" data-color="1"/>
    </g>
</svg>
