<?xml version="1.0" encoding="UTF-8"?>
<svg data-bbox="0.01 0 439.14 127.73" viewBox="0 0 439.15 127.69" xmlns="http://www.w3.org/2000/svg" data-type="color">
    <g>
        <path d="M350.68 56.44H291.6c-2.31 8.47 1.37 15.09 9.57 16 6.89.73 13.92.37 20.88.08 4.69-.19 7.16-3.1 7-8h21.26c.5 6.16-1.88 10.66-7.14 13.68-5.67 3.26-12 4.52-18.33 5-12.26.86-24.5 1-36.71-1.16-10.38-1.82-16.72-7.6-17.7-18a101.4 101.4 0 0 1 .14-21.33c1.09-9.2 7.06-14.66 16.18-16.42a123.4 123.4 0 0 1 46.71-.12c9.13 1.72 14.48 7.18 15.93 16.24.66 4.46.84 9.11 1.29 14.03m-59.18-9h37.85c-.14-1.45-.24-2.63-.37-3.81-.64-5.51-2.42-7.81-8-8.27a120.5 120.5 0 0 0-19.09-.23c-8.29.58-10.61 3.69-10.39 12.26Z" fill="#ffffff" data-color="1"/>
        <path d="M439.15 24.84c-2.61 7-5 13.46-7.48 20-5.68 15.07-11.27 30.18-17.09 45.19-3.24 8.39-8.19 15.27-17.72 17.49-7.38 1.72-14.83 1.62-22.54 1.14V98.24c11.64 1.48 18.54-3.83 21.15-15.25-3 0-5.74.13-8.49-.07a3.8 3.8 0 0 1-2.76-1.5q-13.68-27.69-27.16-55.47a12 12 0 0 1-.44-1.6c7.29 0 14.33-.06 21.37.1.68 0 1.58 1.28 2 2.15q9.81 22.25 19.51 44.54c.32.72.68 1.43 1.31 2.75.55-1.46.94-2.41 1.27-3.38 4.88-14.4 9.78-28.79 14.59-43.22.58-1.74 1.33-2.54 3.33-2.5 6.15.14 12.34.05 19.15.05" fill="#ffffff" data-color="1"/>
        <path d="M77.12 40.83H56.6c-.23-.7-.54-1.51-.75-2.34-.62-2.34-2-4.17-4.48-4.19-7.74-.07-15.53-.27-23.23.42-4.52.41-6.39 3.53-5.92 7.18.37 2.92 2.07 4.38 5 4.55 8.58.5 17.16.88 25.72 1.55a138 138 0 0 1 15.72 2c7.44 1.46 11.15 5.45 11.63 11.69.72 9.47-2.15 15.22-9.29 18.15s-14.55 3.45-22 3.69c-12 .38-24 .73-35.81-1.87-9.53-2.09-14.18-8.22-13-17.09h20.8c.62 2.1.62 4.74 1.93 5.92a12 12 0 0 0 6.95 2.92c7 .28 14.11 0 21.16-.26a11.5 11.5 0 0 0 4.74-1.71c4.11-2.22 4.34-7.63.25-9.9a17.8 17.8 0 0 0-7.11-1.87c-11.43-.92-22.94-1.16-34.31-2.55C2.75 55.67-.78 47.33 1.22 36.43a11.38 11.38 0 0 1 8.23-9.09 59 59 0 0 1 12.56-2.56c13.66-1 27.34-1.48 41 .73 1.08.18 2.16.41 3.22.69 7.37 1.99 10.78 6.47 10.89 14.63" fill="#ffffff" data-color="1"/>
        <path d="M211.39 40.86h-20.57c-.4-6.54-5-7.3-10.21-7.07-6.35.29-12.7.58-19 1.24a5.36 5.36 0 0 0-4.92 4.58c-.71 4.17 1 6.56 5.3 6.85 9.66.67 19.34 1.11 29 1.81 3.87.29 7.73.9 11.56 1.54 11.14 1.87 13.3 9.71 11.95 18.77-.85 5.7-4.34 9.49-9.73 11.48a60.7 60.7 0 0 1-22.08 3.39c-10.67-.16-21.34-.66-32-1.2a23.6 23.6 0 0 1-6.36-1.6c-7.45-2.6-10.71-8-9.74-16.11h21.11c.51 6.35 1.55 8.17 8 8.73 7.19.63 14.5.1 21.75-.13a11.8 11.8 0 0 0 4.47-1.6c2.11-1 3.84-2.79 3.19-5.17a9.37 9.37 0 0 0-3.37-5.11c-1.79-1.16-4.31-1.44-6.55-1.62-11.33-.88-22.76-1-34-2.53-11.44-1.55-16-9.18-13.66-20.47a11.58 11.58 0 0 1 8.06-9.21 58.3 58.3 0 0 1 12.84-2.66c13.66-1.08 27.34-1.44 40.94.75a27 27 0 0 1 3.78.9c7.2 2.17 10.34 6.53 10.24 14.44" fill="#ffffff" data-color="1"/>
        <path d="M231.31 0h21v82.74h-21Z" fill="#ffffff" data-color="1"/>
        <path d="M96.9 24.96h21.07v57.87H96.9Z" fill="#ffffff" data-color="1"/>
        <path d="M212.12 104.79c5.81 0 11.47-.12 17.12.06a6.05 6.05 0 0 1 5.84 4c.91 2.42 0 4.59-2.92 7.14 4.46 2.46 1.66 7.49 4.14 11h-4.93c-.15-1.52-.33-3.14-.47-4.76-.29-3.43-1.24-4.47-4.59-4.58s-6.55 0-10.15 0v9.39h-4Zm4.12 9.7a103 103 0 0 0 11.58-.16c1.17-.13 2.76-2 3-3.27.17-1-1.36-3.18-2.36-3.32-4-.57-8-.55-12.19-.75Z" fill="#ffffff" data-color="1"/>
        <path d="M96.86 11.47V0h21.15v11.47Z" fill="#ffffff" data-color="1"/>
        <path d="M253.85 120.03c2.05-.56 3.59-.91 4.54 1.7a4.82 4.82 0 0 0 3.4 2.52 33.5 33.5 0 0 0 8.83-.17 4.13 4.13 0 0 0 2.49-3c.07-.88-1.41-2.4-2.49-2.75-2.83-.9-5.82-1.3-8.75-1.93a19.3 19.3 0 0 1-3.45-.92c-3.89-1.63-4.66-6-1.63-9 3.63-3.54 14-3.66 17.63 0 1.1 1.11 1.67 2.75 2.62 4.38-2.59.75-3.94.49-5.16-1.62-1.74-3-9.53-3.46-12-1-1.63 1.65-1.07 3.94 1.32 4.56 3.47.91 7 1.47 10.51 2.29 4 .93 5.48 2.52 5.56 5.56s-1.53 5.58-5.31 6.14a42.3 42.3 0 0 1-12.1.08c-3.38-.47-5.77-2.88-6.01-6.84" fill="#ffffff" data-color="1"/>
        <path d="M158.66 104.55c5.06 0 9.78-.29 14.44.13a9.77 9.77 0 0 1 6.18 2.86c1.1 1.31 1.15 4.16.6 6-.78 2.69-3.41 3.83-6.14 4-3.57.16-7.15 0-11 0v9.35h-4.11Zm4.23 9.95c3.6 0 7.09.3 10.47-.16 1.14-.16 2.68-2.2 2.8-3.48.09-1-1.61-2.93-2.75-3.13a91 91 0 0 0-10.52-.75Z" fill="#ffffff" data-color="1"/>
        <path d="M180.51 126.62c3.46-7 6.89-14.07 10.43-21.06.8-1.59 4.86-1.61 5.63 0 3.41 7 6.7 14.14 10 21.22-3.29 1.13-5.12.1-5.82-2.91-.66-2.85-2.51-3.75-5.26-3.31a5.4 5.4 0 0 1-1.79 0c-4.26-.72-7.2.41-8.52 5-.29 1-2.64 1.46-4 2.17Zm13.09-18.43-4.52 9.4h8.67c-1.44-3.23-2.7-6.09-4.15-9.4" fill="#ffffff" data-color="1"/>
        <path d="M243.11 104.63h3.77v22.34h-3.77Z" fill="#ffffff" data-color="1"/>
    </g>
</svg>
