<?xml version="1.0" encoding="UTF-8"?>
<svg data-bbox="-0.03 0.039 1012.347 108.517" viewBox="0 0 1012.29 108.48" xmlns="http://www.w3.org/2000/svg" data-type="shape">
    <g>
        <path fill="#fff" d="M707.7 99.3c-1.83 7.16-7.27 10.38-14.8 8.77a30.3 30.3 0 0 1-6.5-2.48c-16.64-8-33.21-16.06-49.92-23.85a24.6 24.6 0 0 0-10-2.26q-112.75-.18-225.49-.09h-6.9a39 39 0 0 1 3.86-2.54c10.91-5.29 21.79-10.66 32.81-15.72a20.2 20.2 0 0 1 8.16-1.59q71.75-.15 143.49-.07h5.34l.23-.87c-1-.61-2-1.3-3.07-1.81-25-12-50-24-75-36.15a8 8 0 0 0-7.87.08q-88 42.51-176.1 84.69a28.65 28.65 0 0 1-12.85 2.6c-5.76-.19-8-3.42-8-9.2V21.9c-2.2.87-3.86 1.5-5.49 2.19-39.21 16.55-78.64 32.55-117.51 49.82-16.12 7.17-30.19 5-45-3.53 1.3-.63 2.34-1.19 3.43-1.65q77.9-32.79 155.77-65.58c6.71-2.83 13.48-3.5 20.44-1.26 6.81 2.19 9.09 5.32 9.09 12.36v68.27c2.17-.94 3.77-1.58 5.31-2.32C383.4 55.03 435.74 30.05 487.84 4.64c12.59-6.15 24.06-6.12 36.63 0 50.3 24.6 100.84 48.73 151.29 73 1.46.71 3 1.33 4.2 1.87-2.28-6.16-5.52-12.17-6.65-18.55-2.91-16.51 3.86-29.75 16.33-40.29C702.9 9.47 718.71 4.2 735.78 2.43a189 189 0 0 1 19.47-.79q119.25-.08 238.49 0a38.2 38.2 0 0 1 10.35 1.15c4.35 1.24 7.85 4 8 9s-3.24 7.91-7.64 9.23a33.2 33.2 0 0 1-9.34 1.1q-122 .08-244 0c-12.46 0-24.64 1.45-35.94 7a53.5 53.5 0 0 0-11.25 7.25c-12.6 10.8-12.49 25.48.11 36.26 8.86 7.58 19.47 11.33 30.86 12.9a122 122 0 0 0 16.44 1q122 .09 244 .15a26.9 26.9 0 0 1 11.93 2.56c6.65 3.45 6.77 11.51.19 15.07a27.06 27.06 0 0 1-12.36 2.86q-113.49.24-227 .12c-3 0-6-.07-9 0-17.64.49-35-.65-51.39-7.99"/>
        <path fill="#fff" d="M20.77 21.96v12c0 21.32-.05 42.64 0 64 0 4.1-.51 7.66-4.84 9.36-4.81 1.89-9.59 1.8-13.64-1.59a7.54 7.54 0 0 1-2.2-5.25C-.04 70.9.02 41.32-.03 11.74c0-4.26 2.35-6.75 5.8-8.48a24.88 24.88 0 0 1 21.3-1c42.78 17.84 85.46 35.89 129.46 54.42-6.23 2.63-11.68 4.42-16.61 7.14-6.83 3.82-12.83 3.25-19.99.1-30.72-13.5-61.73-26.34-92.65-39.41-1.95-.82-3.94-1.55-6.51-2.55"/>
        <path fill="#fff"  d="M367.38 28.21c5.12 1.65 10.23 2.63 14.67 4.9 5.17 2.65 5 7.19.37 10.53-7.06 5.06-22.78 5.09-29.88.06-4.69-3.33-4.9-7.88.22-10.55 4.42-2.3 9.53-3.28 14.62-4.94"/>
        <path fill="#fff"  d="M644.6 28.2c5.19 1.65 10.33 2.61 14.79 4.89 5.2 2.66 5 7.23.35 10.58-7.1 5.08-23.08 5-30-.1-4.43-3.28-4.65-7.76.24-10.32 4.42-2.32 9.54-3.36 14.62-5.05"/>
    </g>
</svg>
