<?xml version="1.0" encoding="UTF-8"?>
<svg data-bbox="0 0.005 1946.48 846.347" viewBox="0 0 1946.47 846.36" xmlns="http://www.w3.org/2000/svg" data-type="color">
    <g>
        <path d="M253.22 9.44h20.18c119.49 0 239-.43 358.47.3 47 .28 92.21 10.2 133.51 33.81 39.3 22.47 66 54.84 76.13 99.72a183.9 183.9 0 0 1 2.79 63c-6.89 57-26.72 109.35-58.66 156.93-34.39 51.26-81 88.29-136.45 114.65-42.35 20.14-87 32.6-133.19 40.2-45.21 7.43-90.71 9.14-136.39 7.74a269 269 0 0 1-29.35-2.29c-4.83-.69-6.28.69-7.58 5-7.19 23.52-14.68 47-22.05 70.41Q293.29 685.97 266 773.03c-7.65 24.48 1.33 46.75 23.61 59.57a15 15 0 0 1 1.52 1.32H0a17 17 0 0 1 1.72-1.37c26-15.34 45-36.25 54.17-65.76Q163.55 421.99 271.6 77.32c3.29-10.51 6-21 4.3-32.3-1.85-12.12-7.53-21.87-16.34-30.06-1.8-1.64-3.7-3.24-6.34-5.52M364.36 459.9c4.58.85 8.13 1.59 11.72 2.14s7.25 1.09 10.89 1.3c37.83 2.14 73.43-5.39 106.32-24.62 35.06-20.49 60.74-50 80.82-84.72 21.83-37.78 35.66-78.68 45.54-120.93 6.76-29 11-58.25 6-88-4.69-27.86-17.77-50-44.24-62.46a104.8 104.8 0 0 0-42-9.66c-15.82-.45-31.66 0-47.48-.38-4.58-.1-6.55 1.16-8 5.75Q426.13 263.15 368 447.9c-1.19 3.76-2.29 7.54-3.64 12" fill="#ffffff" data-color="1"/>
        <path d="M1946.48 36.65c-11.44 36.25-22.71 72-34.18 108.35-6.87-5.42-13-10.46-19.39-15.27-34-25.81-71.07-45.71-112.87-55.77-58-14-112.23-4-163 26.45-38.73 23.24-70.22 54.44-97.47 90.06-48 62.69-81.91 132.59-105.38 207.76-14.09 45.1-26 90.74-33.68 137.39-5.17 31.42-8.48 63.06-7.16 95s6.07 62.95 21.64 91.42c18.38 33.62 47 52.6 84.54 58.63 21 3.37 41.77 2.36 62.54-1.65 3.27-.63 4.71-2.15 5.66-5.2q36.9-118 73.95-236 8.36-26.64 16.73-53.28c9.34-29.5-.12-54.22-26.85-69.91-2.68-1.57-5.45-3-9-4.89h318.66l-9 4.11c-30.72 13.85-51.06 36.45-61.15 69-30.41 98.12-61.48 196-92.2 294.05a10.74 10.74 0 0 1-6.26 7.05 651.8 651.8 0 0 1-169.45 54.33 514 514 0 0 1-110.88 7.57c-58.71-2.57-114.88-15.76-167.26-43-43.53-22.66-73.66-58-94.27-102-14.16-30.2-22.44-62.1-27.23-95.05a433.2 433.2 0 0 1-3.6-91.21c7.63-114.52 40.73-220.69 112-311.85 75.07-96 172.73-159 291.89-187.41a555 555 0 0 1 96.58-14.14 689 689 0 0 1 116.21 3c49.4 5.45 97.67 16 145.1 30.65 1.43.41 2.74 1.02 4.78 1.81" fill="#ffffff" data-color="1"/>
        <path d="M1029.89 659.01c1.36-1.54 2.44-2.55 3.27-3.72 14.78-20.92 22.71-44.29 24.43-69.74 1.09-16.13-5.2-29.19-18.45-39.68h103.09c-1.21 8.87-2.2 17.54-3.59 26.15-8 49.49-31.26 91.16-65.17 127.41-8.43 9-8.42 9.22.38 17.89 27.32 27 58.49 48.92 91.07 68.92 29.84 18.32 60.69 34.66 93.75 46.52a31 31 0 0 1 2.74 1.42h-5.43q-94 0-188-.06c-3.91 0-8.61-1-11.6-3.3-17.16-13.17-34-26.79-50.77-40.44a154 154 0 0 1-14.68-13.56c-3.51-3.71-6-3.91-10.4-.9a456.8 456.8 0 0 1-97.34 51.4c-36.38 13.87-73.87 21-112.86 18.56-41.07-2.57-79.48-13-111.37-40.66-29.08-25.22-46.72-56.9-51.39-95.3-8.51-70 16.23-126.27 70.73-170.07 33-26.52 70.84-44 110.28-58.33q21.56-7.86 43.24-15.35c3.59-1.24 5-2.94 5-7.12.32-20.46 0-41 2.06-61.36 4.07-41.12 15-80.37 36.9-115.94 27.61-44.8 68.85-70 119.17-81.16 33.28-7.41 66.26-5.52 97.68 8.77 30.13 13.7 52 35.12 59.83 68.45 6.32 26.91.18 51.82-13.2 75.29-14.41 25.25-35.12 44.65-58.27 61.68-28.88 21.23-60.84 36.95-93.12 52.11-9.94 4.67-19.79 9.54-29.78 14.1-3.25 1.49-4.11 3.17-3.53 6.9 9.29 59.17 34.89 111.37 68.07 160.37Zm-182.2-130.16c-1.57.55-2.53.79-3.41 1.2-30.36 14.18-57.55 32.86-80.11 57.78-25.39 28-39.62 60.1-34.08 98.92 3.1 21.68 11.27 40.83 28.56 54.91 25.53 20.78 55.36 25.56 87.06 21.37 23.9-3.15 46.59-10.78 68.54-20.56 9.68-4.31 19.09-9.24 29.19-14.16a608.6 608.6 0 0 1-95.75-199.46m96.9-102.26c2.77-1.45 5.2-2.48 7.36-3.9 37.37-24.54 69-54.86 92.71-93 9.74-15.65 17.21-32.36 18.53-51.08 1.73-24.43-9.52-39-35.05-37.57-13.45.78-24.62 7.67-34.43 16.57-19.42 17.6-31.17 40-39.48 64.39-10.57 31-12.44 63.11-10.9 95.55.13 2.77.8 5.55 1.26 9.04" fill="#ffffff" data-color="1"/>
    </g>
</svg>
