<?xml version="1.0" encoding="UTF-8"?>
<svg data-bbox="-0.02 0.012 366.583 55.008" viewBox="0 0 366.52 55.02" xmlns="http://www.w3.org/2000/svg" data-type="shape">
    <g>
        <path fill="#fff"  d="M144.83 52.96V7.19l-1.2-.13c-2.84 15.11-5.69 30.22-8.64 45.86-3.79 0-7.63.2-11.41-.15-.81-.08-1.83-2.06-2.07-3.29-2.63-13.66-5.12-27.34-7.67-41-.06-.34-.3-.64-1.2-.95v45.1H99.88c0-4.76-.07-9.57 0-14.37.19-10.95.56-21.89.62-32.84 0-3.27 1.08-4.41 4.35-4.23a96 96 0 0 0 12.71 0c3.41-.25 4.47 1.24 4.93 4.29 1.68 11.18 3.54 22.32 5.34 33.48a2 2 0 0 0 1.07 1.48c.7-3.83 1.45-7.65 2.09-11.49 1.32-8.09 2.69-16.17 3.82-24.29.35-2.46 1.27-3.48 3.78-3.42 4.86.11 9.73.12 14.59 0 2.47-.06 3.15.94 3.18 3.31q.34 22.59.95 45.16c.06 2.34-.53 3.46-3.1 3.31-2.93-.2-5.9-.06-9.38-.06"/>
        <path fill="#fff"  d="M303.65 41.07v-22.9q0-7.1-.31-14.18c-.08-1.89.6-2.82 2.53-2.72h.38c9.51-.64 9.52-.64 9.52 8.83v42.2c-5.83 0-11.27.14-16.69-.14-.88 0-2-1.84-2.43-3-3.58-11.37-7-22.78-10.51-34.17-.39-1.28-.84-2.53-1.26-3.79h-1v3.67c.16 11.32.25 22.64.56 34 .08 2.88-.94 3.64-3.65 3.56-10.09-.27-8.45 1.32-8.52-8.44-.11-12.82.06-25.64-.08-38.45 0-3.18.81-4.57 4.2-4.35a98 98 0 0 0 11.21 0c2.7-.14 4 .86 4.71 3.49 3.17 11.23 6.53 22.4 9.84 33.59.29 1 .72 2 1.08 2.94Z"/>
        <path  fill="#fff" d="M221.05 1.41h12.33v37.77c0 4.34 1.88 6.53 5.4 6.55s5.41-2.09 5.42-6.47v-38c3.81 0 7.48-.14 11.12.13.6 0 1.55 1.79 1.56 2.76.08 12.08.2 24.16-.06 36.24-.18 8.13-3.58 12.32-11.63 13.49a47.6 47.6 0 0 1-15.14-.54c-4.83-.88-8.72-4.45-8.87-9.45-.42-14.07-.13-28.13-.13-42.48"/>
        <path  fill="#fff" d="m354.16 31.55-5-.58v-6.59h17.15c0 6.44.43 12.89-.15 19.24-.42 4.73-4.11 7.63-8.51 9a29.6 29.6 0 0 1-18.38 0c-5.82-1.9-8.88-6.15-9-12.37q-.19-12.88 0-25.77c.1-7.73 3.78-12.59 11.43-13.83a41.5 41.5 0 0 1 14.41.25c8.08 1.61 11.53 7.54 10.16 16.1H354.4c-.13-1.17-.2-2.14-.35-3.09-.57-3.68-2.5-5.31-6.06-5.16-3.25.15-5.23 2-5.28 5.52q-.16 12.89 0 25.77c0 3.35 2.18 5.05 5.66 5.05s5.54-1.69 5.76-5c.17-2.72.03-5.45.03-8.54"/>
        <path  fill="#fff" d="M13.15 36.55c.09 1.7.17 2.92.21 4.13.09 2.63 1.13 5 3.87 5.11 2.09.09 4.81-.48 6.24-1.83a4.73 4.73 0 0 0-.11-6.79 40 40 0 0 0-6.75-5.18c-3.54-2.31-7.37-4.2-10.77-6.68C.48 21.42-.8 16 .84 9.72c1.56-6 6-8.94 11.63-9.45a51.5 51.5 0 0 1 15.08.71c6.13 1.31 9 6.15 8.29 12.33-.09.87-1.22 2.27-2 2.32-3.32.25-6.67.11-10.24.11-.1-1.37.15-2.51-.29-3.24-.95-1.57-2.1-3.89-3.46-4.12-1.83-.31-4.66.53-5.72 1.9-.94 1.21-.66 4.17.21 5.74s3.08 2.8 4.86 3.89c3.19 1.94 6.59 3.52 9.75 5.51 7.61 4.8 9.81 10.21 7.85 18.69-1.5 6.52-6 10.14-14.71 10.81a37.8 37.8 0 0 1-11.8-1C2.92 52.11-.61 46.75.06 39.21c.08-.92 1.12-2.47 1.79-2.51 3.67-.28 7.4-.15 11.3-.15"/>
        <path  fill="#fff" d="M206.18 16.06c-3.37 0-6.6.17-9.79-.12a3.39 3.39 0 0 1-2.17-2.46c-.15-2.92-1.34-5.18-4.21-5.15a7.6 7.6 0 0 0-5.42 2.72c-1.71 2.5-.38 5.18 2.05 6.72 4.3 2.74 8.86 5.05 13.17 7.77 7.21 4.55 9.22 9.37 7.86 17.35-1 5.82-4.24 9.78-9.93 10.7a47.8 47.8 0 0 1-15.14.37c-8.85-1.45-12.39-7.25-11.5-17.34h12.89c.07 1.43.1 2.66.2 3.89.2 2.55 1.09 5 3.89 5.11 2.1.06 4.85-.56 6.22-1.95 2-2 1.56-5-.53-7.07a35.8 35.8 0 0 0-6-4.44c-3.36-2.13-6.89-4-10.24-6.14-6-3.84-7.23-9.63-5.82-16 1.32-6 6-8.78 11.63-9.55a42.8 42.8 0 0 1 12.27 0c8.41 1.32 11.67 6.25 10.57 15.59"/>
        <path  fill="#fff" d="M67.21 6.52c-.7 4.23-1.47 8.45-2.11 12.69-1.57 10.32-3.13 20.63-4.57 31-.28 2-.9 2.89-3 2.82-3.57-.12-7.14 0-11.05 0 2.19-11.87 4.27-23.21 6.38-34.55.86-4.64 1.9-9.25 2.58-13.91.34-2.28 1.15-3.3 3.53-3.27 5.73.09 11.47-.08 17.2.13 1.07 0 2.85 1.21 3 2.11 3.11 15.84 6 31.72 8.95 47.59a7.2 7.2 0 0 1-.13 1.68h-13l-6.85-46Z"/>
    </g>
</svg>
