<?xml version="1.0" encoding="UTF-8"?>
<svg data-bbox="0 -0.004 753.16 259.338" viewBox="0 0 753.1 259.35" xmlns="http://www.w3.org/2000/svg" data-type="shape">
    <g>
        <path fill="#fff"  d="M0 .42C2.36.3 4.13.13 5.89.13 21.04.13 36.2.3 51.34 0c4.44-.09 6.33 1.39 7.78 5.52q29 82.49 58.34 164.87c.54 1.54 1.22 3 2.23 5.57 1.12-2.57 1.93-4.28 2.62-6Q154.8 87.69 187.16 5.37c1.63-4.15 3.71-5.31 8-5.31q276 .17 552 .09h6c-1.3 14.85-2.55 29-3.86 44h-6.84q-253.48 0-507-.13c-5 0-7.16 1.41-9 6-26.35 67.29-53 134.47-79.3 201.76-1.57 4-3.54 5.09-7.58 5q-21.47-.35-43 0c-4.11.07-6-1.08-7.44-5.14q-35.23-99.57-70.83-199Q10.07 29.41 1.84 6.16C1.22 4.47.75 2.75 0 .42"/>
        <path fill="#fff"  d="M449.33 164.88c-.14 3.08-.28 4.83-.29 6.57 0 26.45-.1 52.9.09 79.35 0 4.52-1.15 6-5.84 5.88-11.64-.34-23.3-.1-34.95-.12-1.63 0-3.26-.15-5.22-.24V75.38h13.38c9.49 0 19 .16 28.46-.08 3.29-.09 5 1.09 6.7 3.79q27.52 44.55 55.29 89a12.5 12.5 0 0 0 3.9 4.23V75.73h48.31v180.88c-8.14 0-16.38-.91-24.34.2-13 1.81-20.68-3.31-28-14-17.11-24.95-35.72-48.87-53.73-73.2-.93-1.27-1.95-2.45-3.76-4.73"/>
        <path fill="#fff"  d="M381.85 256.55c-16.4 0-32.19.07-48-.14-1.23 0-3-1.85-3.55-3.21-2.67-7-5.11-14-7.42-21.15-1-2.92-2.38-4.18-5.67-4.15q-30.45.22-60.91 0c-3.13 0-4.73.82-5.68 4-2.13 7.15-4.61 14.22-7.28 21.19-.56 1.44-2.59 3.27-4 3.29-15.48.22-31 .12-46.43.08a7.5 7.5 0 0 1-1.72-.56c.42-1.44.72-2.85 1.24-4.17q33.73-86 67.43-172.08c1.32-3.37 2.94-4.42 6.45-4.38 15.48.19 31 .13 46.44 0 2.6 0 4.12.45 5.14 3.27q31.58 87.63 63.36 175.19a24 24 0 0 1 .6 2.82m-74.63-61.24-19.48-58.91h-1.36c-6.5 19.47-13 38.94-19.67 58.89Z"/>
        <path  fill="#fff" d="M737.22 126.1c-13.78 0-27.24.07-40.69-.13-1.16 0-2.86-1.56-3.37-2.78-3.95-9.43-11.26-13.95-21.08-15.3-8.49-1.17-16.92-1.57-25.15 1.3-5.24 1.82-9.68 4.74-10.44 10.86-.81 6.52 2.74 10.91 8.07 13.66a74.5 74.5 0 0 0 13.89 5.38c13.59 3.82 27.3 7.22 40.93 10.94 24.82 6.76 38.47 23.34 39.69 48 1.19 24.25-12.08 46.08-34.81 54-27.34 9.49-55.37 10.14-82.57-.46-22.15-8.63-36.19-24.83-39.16-49.24a24 24 0 0 1 0-2.74 28 28 0 0 1 3.4-.41h38c2.22 0 4-.08 5 2.79 3.65 11.08 11.91 16.92 23.08 18.76 11.78 1.95 23.62 2.58 34.65-3.16 11.64-6.06 12.06-20 .84-26.85a49 49 0 0 0-11-4.65c-7.3-2.25-14.76-3.94-22.08-6.15-11.76-3.54-23.71-6.67-35.12-11.13-19.84-7.75-31.06-24.78-30.25-44.81.57-14 6.49-25.64 17.26-34.66 12.5-10.47 27-16.08 43.24-17.38 23.39-1.86 45.44 1.68 65 15.71 12.08 8.74 22.35 25.68 22.67 38.45"/>
    </g>
</svg>
