<?xml version="1.0" encoding="utf-8"?>
<!-- Generator: Adobe Illustrator 25.0.1, SVG Export Plug-In . SVG Version: 6.00 Build 0)  -->
<svg version="1.1" id="图层_1" xmlns="http://www.w3.org/2000/svg" xmlns:xlink="http://www.w3.org/1999/xlink" x="0px" y="0px"
	 viewBox="0 0 200 199.3" style="enable-background:new 0 0 200 199.3;" xml:space="preserve">
<path d="M200,98.4c-0.4,14.6-0.6,29.2-1.2,43.8c-0.4,9.9-1.8,19.6-6.9,28.4c-7,11.9-16.9,20.5-30.3,24.7c-9.9,3.1-20,3.6-30.1,3.7
	c-21.9,0.3-43.8,0.4-65.7,0c-11.8-0.2-23.7-0.9-34.6-6.4c-15.5-7.8-25.7-20.3-28.3-37.3c-2.1-13.4-2.3-27-2.7-40.6
	C-0.1,99.4-0.1,84,0.4,68.6C0.8,57.3,1.1,45.9,5.3,35c6-15.5,17-25.6,32.5-30.8c11.6-3.9,23.7-4,35.8-4.1
	c19.1-0.1,38.3-0.2,57.4,0.3c10.4,0.3,21,0.1,31.1,3.6c18.4,6.4,30.5,18.9,34.7,38c1.6,8.3,2.5,16.8,2.7,25.3
	c0.4,10.4,0.1,20.8,0.1,31.2L200,98.4z M182.5,99.1h-0.7c0-8.6,0.3-17.3-0.1-25.9s-1-17.2-2.2-25.7c-2.3-14.2-13.5-25.3-27.8-27.4
	c-8.6-1.2-17.3-1.8-26-1.9c-21.4-0.1-42.9,0.1-64.4,0.4c-8,0.1-15.9,1-23.1,4.9c-13.4,7.3-18.7,19.5-19.1,34.1
	c-0.3,13.4-0.2,26.8-0.5,40.1c-0.5,17.5-0.9,34.9,1.6,52.3c2.3,15.8,12.3,26.8,28.6,29.2c10,1.3,20,2,30,2
	c18.8,0.2,37.6-0.2,56.4-0.3c7.8,0,15.5-0.6,22.8-3.4c14.8-5.6,21.4-17.3,22.6-32.2C181.7,129.8,181.9,114.4,182.5,99.1z"/>
<path d="M100.2,48.9c26.4-1,51.1,21.4,51.3,51.1c0.1,27.9-23.2,50.9-51.2,51c-28.6,0.1-51.4-23.7-51.3-51.5
	C49,71.6,73,47.7,100.2,48.9z M133.1,99.6c-0.1-18.2-14.9-33-33.1-32.9c-18.2,0.1-33,14.9-32.9,33.1l0,0c0,19.5,15.6,33.1,33.5,33
	C118.7,132.6,133.2,117.7,133.1,99.6z"/>
<path d="M140.9,46.4c-0.1-6.5,5-12,11.6-12.1c0.2,0,0.4,0,0.6,0c6.8,0,12.4,5.4,12.4,12.3c0,6.8-5.4,12.4-12.3,12.4
	C145.9,59,140.8,53.8,140.9,46.4z"/>
</svg>
