<?xml version="1.0" encoding="utf-8"?>
<!-- Generator: Adobe Illustrator 25.0.1, SVG Export Plug-In . SVG Version: 6.00 Build 0)  -->
<svg version="1.1" id="图层_1" xmlns="http://www.w3.org/2000/svg" xmlns:xlink="http://www.w3.org/1999/xlink" x="0px" y="0px"
	 viewBox="0 0 194.4 200" style="enable-background:new 0 0 194.4 200;" xml:space="preserve">
<path d="M0,0.4c1.9-0.1,3.1-0.2,4.4-0.2c16.4,0,32.8,0.1,49.2-0.1c2.7-0.2,5.3,1.2,6.7,3.6C75.1,25.5,90,47.2,104.9,68.9
	c0.9,1.3,2,2.6,3.3,4.3c4.3-4.9,8.2-9.4,12.1-13.9l42.2-49.1c1.6-1.6,3.1-3.3,4.3-5.2c2.5-4.3,6.1-5.4,10.8-4.9c3.1,0.3,6.3,0,9.4,0
	l0.5,0.9c-2.1,2.6-4.2,5.2-6.4,7.8c-18.3,21.3-36.7,42.6-55.1,63.8c-2.6,3-4.9,6.1-7.7,8.9c-2.2,2.2-2.3,3.9-0.5,6.4
	c8.4,12,16.6,24,24.8,36.1c16.6,24.1,33.2,48.3,49.7,72.5c0.5,0.8,1,1.6,1.8,3c-1.5,0.2-2.6,0.4-3.6,0.4c-17,0-34-0.1-51,0.1
	c-3.5,0-4.7-2.2-6.2-4.4c-12.8-18.7-25.7-37.4-38.5-56c-3-4.3-5.9-8.6-8.9-12.9c-0.9-1.2-1.9-2.3-3.1-3.8
	c-5.1,5.9-10,11.4-14.7,16.9l-41.9,48.8c-2.1,2.1-4,4.3-5.8,6.7c-2.5,4-5.8,5.1-10.2,4.6c-3.2-0.3-6.4-0.1-10.5-0.1
	c0.7-1.3,1.5-2.5,2.4-3.7c18.3-21.2,36.6-42.4,54.8-63.6c5.4-6.3,10.7-12.7,16.2-18.9c1.7-1.9,1.7-3.2,0.3-5.2
	C64.9,95.7,56.1,82.8,47.3,70C31.9,47.5,16.4,25,1,2.6C0.6,1.9,0.3,1.1,0,0.4z M23.7,13.3c0.5,1.2,1.1,2.3,1.8,3.4
	c7.2,10.3,14.4,20.6,21.6,30.9c16,22.9,32.1,45.8,48.1,68.8c16,22.9,32,45.7,47.9,68.4c0.9,1.2,2.2,2,3.6,2.3
	c7.2,0.2,14.5,0.1,21.7,0c0.6-0.1,1.2-0.4,1.7-0.7c-0.7-1.1-1.3-2-1.9-2.9l-56.9-81.2C93.1,76.1,74.4,50.1,56.7,23.4
	c-5.4-8.1-11.1-11.6-20.5-10.2C32.3,13.8,28.3,13.3,23.7,13.3L23.7,13.3z"/>
</svg>
