<svg id="图层_1" data-name="图层 1" xmlns="http://www.w3.org/2000/svg" viewBox="0 0 200 200"><path d="M388.08,381.35c-2.06,2-4.12,4.1-6.19,6.14-6.52,6.43-15.7,6.48-22,.12-5.54-5.59-5.15-14.89.9-21.09a32.69,32.69,0,0,0,4.63-5.29c-2.69,1-5.33,2.18-8.06,3.08-10.57,3.45-20.41-4.26-19.5-15.33a13.77,13.77,0,0,1,8-11.85c3.23-1.6,6.59-2.93,9.83-4.92-3.15,0-6.31.09-9.46,0-6.82-.25-12.63-4.34-14.43-10-2.06-6.55-.3-13,5.5-16.8,2.71-1.77,6.33-2.28,9.62-3,2-.42,4.22-.08,6.41-.61-2.54-1.11-5.13-2.11-7.6-3.34A14.77,14.77,0,0,1,356.35,271c3.55,1,7,2.56,10.45,3.86l.71-.83c-2.28-2-4.69-3.94-6.82-6.11-6.08-6.18-6.28-15.38-.57-21,6.23-6.16,15.1-6.18,21.47,0,1.71,1.67,3.24,3.52,4.85,5.28l.65-.45c-1-2.53-2.09-5-3-7.59-2.18-6.28-.6-12.27,4.22-16.43s11.14-5.2,16.77-1.72c2.73,1.69,4.81,4.72,6.64,7.51,1.61,2.46,2.46,5.42,4.32,8.08,0-2.93-.08-5.86,0-8.79.32-10.86,9.15-17.66,19.27-14.88,6,1.66,10.31,7.56,10.57,14.64a38.55,38.55,0,0,0,.55,7c1.11-2.54,2.12-5.13,3.34-7.61a14.63,14.63,0,0,1,19.83-6.94c7.11,3.32,10.12,11.43,7.15,19.35a44.07,44.07,0,0,0-2.34,7.1c1.86-1.76,3.67-3.58,5.6-5.27,6-5.29,14.76-5.28,20.16,0a14.9,14.9,0,0,1,1.12,20.59,37.92,37.92,0,0,0-4.33,5.7c1.59-.67,3.17-1.37,4.77-2,8.53-3.49,17-.27,20.37,7.69,3.25,7.79-.32,16.06-8.61,19.78a71.44,71.44,0,0,0-9.08,4.42c3.66,0,7.32-.09,11,0,10.87.29,17.68,9.08,15,19.22-1.64,6.08-7.46,10.34-14.61,10.62a36.52,36.52,0,0,0-7.13.6c2.07.87,4.14,1.71,6.19,2.6,8.38,3.63,12.05,12,8.73,19.93-3.17,7.53-11.65,10.81-19.92,7.66a68.1,68.1,0,0,0-10.86-3.59c2.44,2.31,5,4.52,7.31,6.94,5.78,6,6.48,14.07,1.87,20.15a14.82,14.82,0,0,1-20.84,2.76c-2.35-1.85-4.41-4.08-7.22-6.71,1.15,2.8,2.07,4.85,2.85,7,2.16,5.88,1.39,11.36-2.92,16a14.14,14.14,0,0,1-14.53,4.25c-5.13-1.29-8.36-4.83-10.45-9.52a29.08,29.08,0,0,0-2.71-5.25c-.17,3.25-.11,6.54-.56,9.75a14.72,14.72,0,0,1-29.09.24c-.49-3.26-.42-6.59-.65-10.63-1.36,3.11-2.37,5.67-3.58,8.13A14.64,14.64,0,0,1,397.55,411c-6.69-.71-11.89-4.86-13.05-11.52-.55-3.2.32-6.76,1.07-10,.61-2.68,2-5.17,3-7.75Z" transform="translate(-330.96 -217.29)"/></svg>