<svg id="图层_1" data-name="图层 1" xmlns="http://www.w3.org/2000/svg" viewBox="0 0 155.45 200"><path fill="#fff"  d="M508.38,275.19c.32,20.14-6.14,36.32-14.57,51.88-12.32,22.72-28.77,42.34-46.47,61-2.43,2.57-4.76,5.4-7.64,7.35-6.89,4.67-15.4,3.44-21.48-2.89-19.2-20-37.16-40.94-50.56-65.38-9-16.45-15.35-33.74-14.63-52.9,1-26.84,12.73-48.05,34.89-62.93,40.36-27.1,95.44-10.37,114.41,34.43C506.57,255.73,508.77,266.24,508.38,275.19Zm-144.3,2c.22,3,.26,6,.69,8.94,1.9,12.91,6.8,24.76,13.06,36.1,12.9,23.32,30.22,43.22,48.44,62.41,3,3.16,5.85,3.12,8.89-.08,5.58-5.87,11.15-11.76,16.47-17.87,14.19-16.27,27-33.52,36.36-53.11,6-12.56,10-25.61,9.26-39.76-2.09-41.2-38.23-70.44-78.63-63.25C387.43,216.13,363.55,244.11,364.08,277.2Z" transform="translate(-352.97 -198.22)"/><path fill="#fff"  d="M397.48,275.73a33.26,33.26,0,1,1,66.51.71c-.05,18.17-15.52,33.2-33.95,33C412.08,309.23,397.48,294.11,397.48,275.73Zm11.23.26a21.88,21.88,0,0,0,22.14,22.18,22.19,22.19,0,0,0,.06-44.37A22.07,22.07,0,0,0,408.71,276Z" transform="translate(-352.97 -198.22)"/></svg>