<?xml version="1.0" encoding="utf-8"?>
<!-- Generator: Adobe Illustrator 25.0.1, SVG Export Plug-In . SVG Version: 6.00 Build 0)  -->
<svg version="1.1" id="图层_1" xmlns="http://www.w3.org/2000/svg" xmlns:xlink="http://www.w3.org/1999/xlink" x="0px" y="0px"
	 viewBox="0 0 200 148.3" style="enable-background:new 0 0 200 148.3;" xml:space="preserve">
<path  fill="#fff" d="M96.6,0C118,0,134.2,5.6,149,15.2c21.6,13.9,37.5,33.2,50,55.4c1.4,2.2,1.4,4.9,0,7c-12.5,22.1-28.1,41.4-49.7,55.1
	c-29.6,18.8-60.2,20.9-91.4,4.1c-21.8-11.7-38.1-29.4-51.3-50c-1.9-3-3.6-6.1-5.5-9.2c-1.4-2.1-1.5-4.9-0.1-7.1
	c14.2-25.2,32.5-46.4,58.4-60.3C72,3.5,85.7,0.1,96.6,0z M99.5,137.7c10.7,0.2,24.5-3,35-8.5c23.6-12.2,40.1-31.6,53.6-53.9
	c0.4-0.9,0.3-2-0.2-2.8c-11.7-19.5-26-36.4-45.2-49C116.6,6.2,82.6,6.4,56.7,23.9C37.8,36.4,23.7,53.1,12.2,72.2
	c-0.5,1.2-0.5,2.5,0,3.7c9.4,15.6,20.6,29.7,34.8,41.2C62.3,129.6,79.5,137.2,99.5,137.7z"/>
<path  fill="#fff" d="M131.1,74.2c-0.1,17.2-14.1,31.1-31.3,31s-31.1-14.1-31-31.3c0.1-17.2,14.1-31.1,31.3-31c0.1,0,0.1,0,0.2,0
	C117.4,43.2,131.1,57.1,131.1,74.2z M120.6,74c0-11.4-9.3-20.6-20.6-20.6c-11.4,0-20.6,9.3-20.6,20.6c0,11.3,9.2,20.5,20.5,20.6
	C111.2,94.6,120.5,85.4,120.6,74z"/>
</svg>
