<?xml version="1.0" encoding="utf-8"?>
<!-- Generator: Adobe Illustrator 25.0.1, SVG Export Plug-In . SVG Version: 6.00 Build 0)  -->
<svg version="1.1" id="图层_1" xmlns="http://www.w3.org/2000/svg" xmlns:xlink="http://www.w3.org/1999/xlink" x="0px" y="0px"
	 viewBox="0 0 200 174.2" style="enable-background:new 0 0 200 174.2;" xml:space="preserve">
<path  fill="#fff" d="M99.5,22.1c3.1-2.9,5.4-5.3,7.9-7.4c15.7-13.8,34-18.1,53.7-12c20.4,6.3,33.6,20.5,37.7,41.6c3.8,19-1.7,35.9-15.6,49.7
	c-26,25.9-52,51.7-78.1,77.5c-3.7,3.7-6.5,3.7-10.2,0c-26.2-26-52.6-51.8-78.6-78c-21.2-21.3-21.7-54-1.7-75.7
	c20.8-22.5,57-23.5,79-2.2C95.7,17.5,97.4,19.8,99.5,22.1z M100,160.9c26-25.8,51.9-51.2,77.5-76.9c6.8-6.9,10.8-16,11.3-25.6
	c1.1-17.1-5.6-30.9-20-40.2c-14.8-9.5-30.7-10.1-46-1.2c-6.6,3.9-11.9,9.9-17.7,15.1c-3.9,3.5-6.5,3.7-10.2,0c-2.5-2.5-5-5-7.5-7.4
	c-7.2-7.3-16.7-12.1-26.9-13.4C35.5,7.9,11.7,27.9,11,53.2C10.6,66.8,16,78,25.6,87.5c23.9,23.6,47.9,47.3,71.7,71
	C98.2,159.2,99,160,100,160.9z"/>
</svg>
