<?xml version="1.0" encoding="UTF-8"?>
<svg data-bbox="-0.01 -0.022 401.273 397.122" viewBox="0 0 401.26 397.14" xmlns="http://www.w3.org/2000/svg" data-type="shape">
    <g>
        <path d="M396.04 152.73q-16.65-51.68-62.76-73.25-4.66-2.19-3.14-7.1a315 315 0 0 0 10.28-42.56c1.55-9.53 4.84-19.36 6.34-28.13.17-.91-.21-1.36-1.14-1.36Q223.79-.43 58.97.45q-3.5 0-4.73 1.83a13.7 13.7 0 0 0-1.93 5.34l-14.26 65.3-38 171.13c-.22.95.16 1.4 1.14 1.37a84.3 84.3 0 0 0 19.62-3.12c7.34-2.1 14.79-3.14 21.05-4.36a2 2 0 0 0 1.57-1.52L75.82 91.31l12.82-57a1.72 1.72 0 0 1 1.58-1.44l4.78-.58 194.5.1h.16a1.42 1.42 0 0 1 1.23 1.58 330 330 0 0 1-12.69 57.29 2.44 2.44 0 0 1-2.56 1.85l-42.24-.05-71.83-.2a3.36 3.36 0 0 0-3.7 3.14c-3.27 20.42-9.81 42.39-13.2 60.31-.16.86.21 1.29 1.09 1.29h97.27a2 2 0 0 1 .49.06 2 2 0 0 1 1.43 2.4l-7.43 30.09-8.31 34a3.69 3.69 0 0 1-3.65 2.79c-22.17-.59-46.24-2.39-67.37 1.52q-42.27 7.83-75.69 37.12-25 22.84-36.59 52.72-8.94 23.12-14.77 55.09c-1.14 6.26-4.68 14.72-5.65 22.19a1 1 0 0 0 0 .19 1.34 1.34 0 0 0 1.36 1.33h119.16a2.23 2.23 0 0 0 2.1-1.49 163.5 163.5 0 0 0 7.88-31.55 223 223 0 0 1 5.88-27 243 243 0 0 0 5.75-27 1.56 1.56 0 0 1 1.52-1.31l15.69-.23q65.13.92 106.47-.33a106.6 106.6 0 0 0 22.77-3.45q44.73-12.89 69.88-53.51 26.82-46.28 12.09-98.5"/>
    </g>
</svg>
