<?xml version="1.0" encoding="utf-8"?>
<!-- Generator: Adobe Illustrator 25.0.1, SVG Export Plug-In . SVG Version: 6.00 Build 0)  -->
<svg version="1.1" id="图层_1" xmlns="http://www.w3.org/2000/svg" xmlns:xlink="http://www.w3.org/1999/xlink" x="0px" y="0px"
	 viewBox="0 0 200 200" style="enable-background:new 0 0 200 200;" xml:space="preserve">
<path fill="#fff" d="M0,100C0,44.8,44.8,0,100,0c55.2,0,100,44.8,100,100s-44.8,100-100,100c-0.1,0-0.1,0-0.2,0C44.7,199.8,0.1,155.1,0,100z
	 M100,14.6C81.3,37,70.3,64.8,68.4,94h63.2C129.8,64.8,118.7,37,100,14.6z M100,185.5c18.7-22.5,29.8-50.4,31.6-79.6H68.4
	C70.2,135.1,81.3,163,100,185.5L100,185.5z M56.9,94.2C58.6,64.8,69,36.5,86.6,12.9c-42.4,5.3-74,44.5-74.5,81.4H56.9z M113.6,13.1
	c17.6,23.6,27.9,51.8,29.7,81.1h44.8C186,50.3,149.1,16.5,113.6,13.1L113.6,13.1z M11.9,105.9c2.8,46.6,42.1,78.5,74.6,81
	c-17.6-23.5-27.9-51.7-29.6-81L11.9,105.9z M188.3,105.9h-45.1c-1.8,29.4-12.1,57.7-29.8,81.3C150.8,182.7,185.7,149,188.3,105.9
	L188.3,105.9z"/>
</svg>
