<?xml version="1.0" encoding="utf-8"?>
<!-- Generator: Adobe Illustrator 25.0.1, SVG Export Plug-In . SVG Version: 6.00 Build 0)  -->
<svg version="1.1" id="图层_1" xmlns="http://www.w3.org/2000/svg" xmlns:xlink="http://www.w3.org/1999/xlink" x="0px" y="0px"
	 viewBox="0 0 198.7 200" style="enable-background:new 0 0 198.7 200;" xml:space="preserve">
<path  fill="#fff" d="M68.6,80.5c12.1,20.3,28.9,37.4,49.1,49.9c2.9-2.9,5.5-5.7,8.3-8.5c7.3-7.1,15.8-9,25.6-6.3c8.7,2.4,17.4,4.6,26.2,6.6
	c12.9,2.9,20.6,12.1,20.8,25.3c0.1,9.2,0.1,18.3,0,27.5c-0.2,16.3-13,26.9-29.2,24.8c-34.8-4.3-67.8-18-95.4-39.6
	C46.7,139,26.9,112.1,13.6,80.3C6.7,63.6,2.2,45.9,0.2,28C-1.5,14.4,8.1,2.1,21.6,0.4c0.8-0.1,1.7-0.2,2.6-0.2
	c9.9-0.3,19.8-0.2,29.6,0C65.5,0.5,74.6,8.9,77.2,21c2,9.2,4.4,18.2,6.8,27.3c2.3,8.7,1,16.6-5.2,23.2
	C75.6,74.7,72.2,77.7,68.6,80.5z M187.1,161.5c0-4.9,0.1-9.8,0-14.6c-0.2-7.3-4.1-11.6-11.1-13.2c-9.1-2.1-18.2-4.4-27.3-6.9
	c-5.4-1.9-11.5-0.4-15.3,3.9c-3.3,3.4-6.6,6.8-10,10.2c-2.9,2.9-5.3,3.3-8.6,1.1c-7.1-4.8-14.3-9.4-21-14.7
	c-14.4-11.6-26.5-25.8-35.7-41.8c-2.6-4.3-2.3-6.4,1.3-10.1c3.1-3.1,6.1-6.4,9.3-9.4c4.6-4.4,5.8-9.5,4.1-15.6
	c-2.5-9.4-4.8-18.9-7.1-28.3c-1.2-5.8-6.2-10.1-12.2-10.2c-9.6-0.2-19.3-0.1-28.9,0c-4.6,0-8.9,2.4-11.2,6.4
	c-2.5,3.9-1.8,7.9-1.2,12.1c7,49.1,29.6,89.4,68.4,120.4c26.7,21.3,57.3,33.6,91.1,38c8.5,1.1,15.4-4.7,15.5-13.2
	C187.2,170.8,187.1,166.1,187.1,161.5z"/>
</svg>
